HIERARCHY
ROOT hip
{
	OFFSET 0.000000 0.000000 0.000000 
	CHANNELS 6 Xposition Yposition Zposition Xrotation Zrotation Yrotation
	JOINT abdomen
	{
		OFFSET 0.000000 3.402643 0.000000 
		CHANNELS 3 Xrotation Zrotation Yrotation
		JOINT chest
		{
			OFFSET 0.000000 8.438565 -0.680529 
			CHANNELS 3 Xrotation Zrotation Yrotation
			JOINT neck
			{
				OFFSET 0.000000 10.207942 -0.272212 
				CHANNELS 3 Xrotation Zrotation Yrotation
				JOINT head
				{
					OFFSET 0.000000 3.130431 0.000000 
					CHANNELS 3 Xrotation Zrotation Yrotation
					End Site
					{
						OFFSET 0.000000 3.130435 0.000000 
					}
				}
			}
			JOINT lCollar
			{
				OFFSET 3.470700 6.669187 -0.816635 
				CHANNELS 3 Yrotation Zrotation Xrotation
				JOINT lShldr
				{
					OFFSET 3.198488 0.000000 0.000000 
					CHANNELS 3 Zrotation Yrotation Xrotation
					JOINT lForeArm
					{
						OFFSET 10.139888 0.000000 0.000000 
						CHANNELS 3 Yrotation Zrotation Xrotation
						JOINT lHand
						{
							OFFSET 8.370511 0.000000 0.000000 
							CHANNELS 3 Zrotation Yrotation Xrotation
							End Site
							{
								OFFSET 4.083176 0.000000 0.000000 
							}
						}
					}
				}
			}
			JOINT rCollar
			{
				OFFSET -3.470700 6.669187 -0.816635 
				CHANNELS 3 Yrotation Zrotation Xrotation
				JOINT rShldr
				{
					OFFSET -3.198488 0.000000 0.000000 
					CHANNELS 3 Zrotation Yrotation Xrotation
					JOINT rForeArm
					{
						OFFSET -10.139888 0.000000 0.000000 
						CHANNELS 3 Yrotation Zrotation Xrotation
						JOINT rHand
						{
							OFFSET -8.370511 0.000000 0.000000 
							CHANNELS 3 Zrotation Yrotation Xrotation
							End Site
							{
								OFFSET -4.083176 0.000000 0.000000 
							}
						}
					}
				}
			}
		}
	}
	JOINT lThigh
	{
		OFFSET 5.308129 -1.633274 1.361059 
		CHANNELS 3 Xrotation Zrotation Yrotation
		JOINT lShin
		{
			OFFSET -2.041588 -20.007561 0.000000 
			CHANNELS 3 Xrotation Zrotation Yrotation
			JOINT lFoot
			{
				OFFSET 0.000000 -19.190928 -1.224953 
				CHANNELS 3 Xrotation Yrotation Zrotation
				End Site
				{
					OFFSET 0.000000 -2.449906 4.627600 
				}
			}
		}
	}
	JOINT rThigh
	{
		OFFSET -5.308129 -1.633274 1.361059 
		CHANNELS 3 Xrotation Zrotation Yrotation
		JOINT rShin
		{
			OFFSET 2.041588 -20.007561 0.000000 
			CHANNELS 3 Xrotation Zrotation Yrotation
			JOINT rFoot
			{
				OFFSET 0.000000 -19.190928 -1.224953 
				CHANNELS 3 Xrotation Yrotation Zrotation
				End Site
				{
					OFFSET 0.000000 -2.449906 4.627600 
				}
			}
		}
	}
}
MOTION
Frames: 16
Frame Time: 0.033333
-19.965256 57.940258 74.950233 20.234413 10.173916 -17.628109 0.000000 0.000000 0.000000 -19.408941 -11.798442 3.979767 1.639171 16.675915 1.254333 -14.606651 -16.072124 -24.648359 -28.394222 29.998888 24.994448 50.281040 -23.997112 -33.076355 -0.166744 3.490880 -1.271924 -27.530640 -18.924732 -47.545532 -37.405136 -3.938928 21.431686 -24.651417 -3.342521 41.009830 -60.608047 14.645723 -94.066498 20.326424 -4.685831 -75.305443 16.391796 13.543337 21.812384 7.924115 -5.505837 -0.933684 43.030914 -8.454725 1.956042 -7.387955 -11.320341 -2.073377 15.040678 0.985904 0.569727 66.070915 12.200820 3.455418 
-22.491800 60.589573 76.879150 22.229441 6.088766 -13.092009 0.000000 0.000000 0.000000 -20.774689 -12.834761 3.745357 3.782761 19.944645 1.529311 -15.021116 -16.042883 -27.288288 -32.543198 29.992481 24.995489 39.074818 -20.452538 -34.625072 -3.086032 5.058469 19.723919 -29.123503 -21.630924 -44.446270 -40.059750 1.055562 24.997610 -30.302780 -16.370401 44.714474 -51.881435 30.278366 -90.379547 17.230288 -3.514773 -75.239052 12.664126 25.585308 28.215197 18.304531 -4.518826 -1.412255 46.199837 -9.743067 4.520017 -5.999788 -5.385201 -0.318715 19.506098 -0.169190 0.731620 67.182625 15.566549 14.956005 
-24.662592 62.458660 78.141296 24.445370 3.517965 -9.274969 0.000000 0.000000 0.000000 -20.193920 -14.310777 3.465017 3.575022 20.578716 1.588724 -13.698699 -16.032383 -31.597292 -34.506924 29.992176 24.986542 27.780769 -16.886505 -35.329685 -2.689580 2.349867 26.021027 -33.938625 -15.984921 -45.272518 -41.670101 1.648897 24.992313 -32.905170 -21.512180 46.167595 -51.176022 42.351364 -83.585716 15.059724 -2.001251 -75.462021 1.151748 35.399693 34.257351 29.107504 3.611724 -0.278742 45.065681 -21.179886 11.105186 -11.586933 -2.371843 0.783893 32.349972 1.654749 2.288886 62.310223 21.125513 39.365734 
-26.000132 64.195503 79.559959 22.237366 6.702422 -9.606272 0.000000 0.000000 0.000000 -17.164038 -17.723713 2.838203 5.046788 14.558072 1.080101 -14.653988 -12.762220 -24.381351 -22.111307 24.905863 24.990276 24.433725 -19.010466 -36.010094 -2.988379 2.097923 28.582647 -27.695824 -13.815669 -49.954948 -34.672554 -3.531438 21.990234 -33.522221 -17.058746 45.421429 -61.534672 47.265488 -94.420609 26.021765 5.467055 -75.659546 -2.646987 36.445770 34.551365 29.639528 7.988550 0.690249 37.440273 -21.401785 20.513947 -15.368588 -7.957840 -0.717315 46.245930 4.198780 4.138474 55.491978 26.822342 59.514526 
-27.010988 65.912605 80.878288 19.965868 11.684590 -8.686251 0.000000 0.000000 0.000000 -13.708027 -23.026764 1.811862 6.193542 7.089585 0.492985 -15.669314 -8.980937 -17.210447 -12.790967 14.112240 24.987576 24.532213 -19.693388 -36.145088 -7.451952 5.114819 29.376305 -24.931501 -13.214907 -51.739727 -24.515825 -8.084291 20.666473 -34.241001 -12.460448 44.515743 -69.314079 32.976147 -80.324997 25.593962 1.652921 -75.862061 -8.997162 34.268764 32.040127 26.524654 10.926410 1.513196 35.477921 -20.194107 21.596107 -20.397625 -16.931120 -3.397812 60.080036 4.521117 5.525914 48.471909 20.808203 48.023499 
-28.028940 67.385887 81.933525 19.204588 14.889336 -6.113109 0.000000 0.000000 0.000000 -9.314910 -27.252464 0.973887 6.640545 0.156250 -0.029297 -16.228018 -5.982559 -13.542706 -9.179226 5.986157 24.998182 26.117601 -20.113066 -36.143944 -13.321464 8.615965 29.480944 -22.631878 -12.723841 -52.938530 -13.719269 -12.659881 21.282522 -32.882458 -10.208488 43.716637 -64.627472 12.125949 -61.709545 36.099625 10.638476 -75.282990 -19.648390 33.038307 29.361378 22.708611 12.975490 2.211268 37.392918 -23.417484 20.994459 -27.380814 -24.538918 -5.741669 73.253830 2.011950 6.185173 43.948074 12.041164 29.692080 
-29.393299 68.190086 82.624474 21.045507 12.244289 -2.526304 0.000000 0.000000 0.000000 -4.776047 -26.157516 1.152993 6.678807 -3.642530 -0.293618 -15.951022 -5.349531 -14.616201 -11.196165 5.006382 24.993681 26.842175 -21.908827 -36.530582 -15.838613 10.835256 29.678394 -20.947634 -11.591596 -53.906872 -6.588421 -18.472744 22.222673 -27.496038 -7.509881 42.339245 -44.822315 -8.988304 -44.531406 39.009293 10.005321 -76.044746 -37.126923 36.419216 27.150141 19.248848 15.111990 2.958752 45.964893 -31.018040 22.219309 -35.882710 -26.791622 -6.098339 83.704391 0.869486 6.810597 44.126484 9.417701 28.594912 
-31.022842 68.242767 83.207321 23.695145 4.716681 0.402247 0.000000 0.000000 0.000000 -1.347059 -19.838034 2.353616 6.364305 -4.296794 -0.352769 -14.598247 -5.969931 -17.569937 -14.648886 10.847287 24.991650 25.452215 -25.152706 -37.459839 -14.179791 11.345264 27.371803 -20.322510 -10.682368 -54.370609 -3.066362 -25.136082 22.896059 -20.005199 -1.278733 40.321095 -23.094168 -21.101982 -28.572645 42.756355 8.396184 -77.603172 -60.785965 39.953236 21.847219 15.631113 16.150852 3.451344 57.472107 -36.282642 31.031746 -43.394871 -26.335457 -5.462464 88.249817 4.179832 7.884468 47.142876 9.028079 35.263485 
-32.473476 67.895760 84.098351 25.149616 -1.483940 1.387012 0.000000 0.000000 0.000000 1.140989 -13.851919 3.510036 5.667999 -4.042901 -0.333271 -12.701792 -5.323428 -18.903561 -14.793792 17.857111 24.991930 21.692478 -28.896484 -38.590340 -12.997437 10.881622 24.471594 -21.026783 -12.140057 -53.547382 1.155676 -29.773024 24.695246 -13.798410 8.779961 37.644737 -9.737892 -26.598291 -22.541542 46.906898 7.400111 -79.259071 -79.858391 39.370186 15.238673 12.662534 15.085816 3.409299 62.501114 -36.370575 48.260719 -48.410774 -27.729462 -5.697872 85.206093 8.339577 8.583216 48.981972 6.534975 46.538490 
-33.412380 67.583366 85.552582 25.084663 -1.992121 -0.469146 0.000000 0.000000 0.000000 3.154990 -12.181181 3.784631 4.953320 -5.478361 -0.432386 -11.025748 -2.703565 -16.689056 -9.937937 18.722769 24.990652 16.257591 -31.260740 -39.002731 -15.406818 10.460409 26.595509 -23.012997 -17.119215 -50.673317 9.714183 -30.000000 25.000000 -11.001203 22.312454 32.845707 -6.837963 -30.487686 -20.935568 49.006210 7.550024 -80.280121 -86.049706 39.321720 13.151898 11.144983 13.362861 3.085077 61.560890 -31.331392 59.671921 -51.346287 -30.643524 -6.633352 76.340958 9.599592 8.170344 44.698151 -2.855989 52.367565 
-33.880669 67.493401 87.545135 23.569862 2.571829 -4.007755 0.000000 0.000000 0.000000 5.062277 -14.587029 3.237754 4.077737 -9.247364 -0.703180 -9.513563 0.190981 -12.089906 -3.476884 12.898241 24.997963 13.191722 -30.780449 -38.574409 -16.735344 9.900318 31.589767 -24.423012 -23.804609 -46.847816 21.060564 -25.727283 25.000000 -9.327860 34.612690 26.687027 -7.416985 -36.637043 -12.899871 50.192219 9.272176 -80.406502 -80.331238 40.741417 15.664218 10.853258 12.534645 2.927374 59.383945 -26.755486 60.174812 -53.250572 -33.758667 -7.761463 65.773598 8.144014 6.891641 38.358234 -12.637370 44.082848 
-34.167496 67.431320 89.884125 21.033300 9.168864 -7.567657 0.000000 0.000000 0.000000 6.799870 -18.735575 2.328415 2.752513 -14.216381 -1.068205 -8.309156 2.161890 -6.918695 1.141149 4.865364 24.529619 13.931542 -28.253498 -37.990776 -14.835316 9.536604 36.498970 -23.163471 -28.057543 -45.441776 30.549658 -19.031113 24.997841 -5.128222 42.225258 23.298719 -2.081368 -41.976513 1.050538 51.357632 9.375175 -80.714935 -67.854729 39.815849 19.429983 12.749553 12.868951 2.880519 57.741894 -23.534763 48.731659 -55.027229 -36.297024 -8.776545 56.316273 6.073905 5.528589 38.645477 -11.945574 38.452911 
-34.697495 66.930664 92.246094 19.289869 13.531122 -10.880107 0.000000 0.000000 0.000000 7.001002 -20.888029 1.891621 1.119562 -18.422754 -1.380396 -7.631820 3.202289 -1.310369 3.819592 -0.724190 24.532337 14.510155 -25.318449 -37.329308 -13.119208 9.145314 40.432827 -20.170731 -24.636431 -48.277458 36.031826 -14.965122 24.998388 1.135032 48.235851 22.032495 5.529379 -42.134624 13.111925 53.036808 9.316635 -81.374016 -58.514286 36.511845 20.913528 16.961466 13.430664 2.715491 53.574345 -22.333668 38.418339 -56.951168 -35.633171 -8.336733 49.846306 5.555933 4.782647 46.704903 -4.180808 44.004543 
-35.658424 65.687698 94.407310 19.431076 13.482523 -13.784951 0.000000 0.000000 0.000000 5.405198 -19.077345 2.313070 -0.305142 -20.208313 -1.520158 -7.337302 3.437432 4.334184 5.393560 -1.995174 24.617702 11.528878 -23.340084 -36.744076 -14.335180 8.733626 41.453144 -18.829439 -11.838449 -53.625355 37.882454 -15.643879 25.000000 8.402474 55.662434 20.505644 10.078344 -41.018875 23.549055 56.181271 14.620365 -81.069397 -55.243000 34.666473 21.071543 21.078392 12.922225 2.338775 51.359257 -22.695486 30.258347 -57.606117 -30.751226 -6.235970 46.496613 7.108342 4.792265 52.715466 1.240759 46.484406 
-36.880131 63.757763 96.409859 20.400459 10.644261 -15.287071 0.000000 0.000000 0.000000 3.830850 -15.085276 3.174125 -0.683729 -19.281401 -1.448494 -7.200838 2.747675 7.821720 5.136188 0.524212 24.407923 5.215257 -23.229057 -36.130024 -17.781851 7.792132 38.421902 -18.015165 5.991030 -60.358158 35.223911 -19.189684 24.996313 18.815327 62.554123 21.825899 16.203585 -42.678013 39.381195 60.698334 26.283546 -77.722534 -54.731571 33.948669 20.902719 23.176983 11.412903 1.833914 47.961521 -28.048496 31.874117 -56.409298 -24.235119 -3.868530 43.675343 8.905381 4.953869 53.250904 3.559830 45.453274 
-38.100769 61.340332 98.393997 21.014620 7.409061 -14.961656 0.000000 0.000000 0.000000 3.186173 -11.311470 3.962425 -0.095538 -16.832127 -1.257160 -7.050342 1.429192 8.567370 3.096671 4.941111 24.279972 -2.244087 -25.837360 -35.383141 -20.678299 5.935550 32.961327 -15.670055 20.192738 -64.673256 28.980309 -22.369854 24.999620 30.925177 64.532730 28.903910 25.224276 -44.744995 55.906780 64.359505 35.642715 -72.301239 -54.051476 32.342201 20.412148 23.425341 8.950349 1.241324 55.023830 -35.790977 24.521267 -53.834595 -18.563477 -2.093882 39.007435 9.109906 4.549989 50.910477 4.820926 36.884262 
